<svg width="345" height="85" viewBox="0 0 345 85" fill="none" xmlns="http://www.w3.org/2000/svg">
<rect width="345" height="85" fill="#1EA0FF"/>
<path d="M122.044 56.532C122.852 56.532 123.444 56.82 123.82 57.396C124.196 57.972 124.384 58.784 124.384 59.832C124.384 60.824 124.168 61.624 123.736 62.232C123.304 62.84 122.692 63.144 121.9 63.144C121.196 63.144 120.644 62.904 120.244 62.424V65.424L119.14 65.556V56.676H120.088L120.172 57.528C120.404 57.208 120.684 56.964 121.012 56.796C121.34 56.62 121.684 56.532 122.044 56.532ZM121.636 62.244C122.676 62.244 123.196 61.44 123.196 59.832C123.196 58.216 122.72 57.408 121.768 57.408C121.456 57.408 121.172 57.5 120.916 57.684C120.66 57.868 120.436 58.104 120.244 58.392V61.476C120.404 61.724 120.604 61.916 120.844 62.052C121.084 62.18 121.348 62.244 121.636 62.244ZM128.75 63.036C128.502 63.772 128.154 64.352 127.706 64.776C127.266 65.208 126.634 65.468 125.81 65.556L125.69 64.692C126.106 64.62 126.438 64.516 126.686 64.38C126.934 64.244 127.13 64.068 127.274 63.852C127.426 63.644 127.566 63.36 127.694 63H127.322L125.198 56.676H126.374L128.066 62.196L129.722 56.676H130.862L128.75 63.036ZM135.316 62.712C134.9 63 134.428 63.144 133.9 63.144C133.364 63.144 132.944 62.992 132.64 62.688C132.344 62.376 132.196 61.928 132.196 61.344V57.528H131.092V56.676H132.196V55.248L133.3 55.116V56.676H134.8L134.68 57.528H133.3V61.296C133.3 61.624 133.356 61.864 133.468 62.016C133.588 62.16 133.784 62.232 134.056 62.232C134.304 62.232 134.584 62.148 134.896 61.98L135.316 62.712ZM139.436 56.532C140.012 56.532 140.46 56.704 140.78 57.048C141.108 57.392 141.272 57.864 141.272 58.464V63H140.168V58.62C140.168 58.172 140.08 57.856 139.904 57.672C139.736 57.488 139.488 57.396 139.16 57.396C138.832 57.396 138.54 57.492 138.284 57.684C138.028 57.876 137.788 58.148 137.564 58.5V63H136.46V54.144L137.564 54.024V57.552C138.06 56.872 138.684 56.532 139.436 56.532ZM145.868 56.532C146.756 56.532 147.444 56.828 147.932 57.42C148.428 58.012 148.676 58.816 148.676 59.832C148.676 60.488 148.564 61.068 148.34 61.572C148.116 62.068 147.792 62.456 147.368 62.736C146.944 63.008 146.44 63.144 145.856 63.144C144.968 63.144 144.276 62.848 143.78 62.256C143.284 61.664 143.036 60.86 143.036 59.844C143.036 59.188 143.148 58.612 143.372 58.116C143.596 57.612 143.92 57.224 144.344 56.952C144.768 56.672 145.276 56.532 145.868 56.532ZM145.868 57.42C144.772 57.42 144.224 58.228 144.224 59.844C144.224 61.452 144.768 62.256 145.856 62.256C146.944 62.256 147.488 61.448 147.488 59.832C147.488 58.224 146.948 57.42 145.868 57.42ZM153.475 56.532C154.051 56.532 154.499 56.704 154.819 57.048C155.147 57.392 155.311 57.864 155.311 58.464V63H154.207V58.62C154.207 58.172 154.123 57.856 153.955 57.672C153.787 57.488 153.539 57.396 153.211 57.396C152.875 57.396 152.579 57.492 152.323 57.684C152.067 57.876 151.827 58.152 151.603 58.512V63H150.499V56.676H151.447L151.543 57.612C151.767 57.276 152.043 57.012 152.371 56.82C152.707 56.628 153.075 56.532 153.475 56.532ZM163.61 56.532C164.418 56.532 165.01 56.82 165.386 57.396C165.762 57.972 165.95 58.784 165.95 59.832C165.95 60.824 165.734 61.624 165.302 62.232C164.87 62.84 164.258 63.144 163.466 63.144C162.762 63.144 162.21 62.904 161.81 62.424V65.424L160.706 65.556V56.676H161.654L161.738 57.528C161.97 57.208 162.25 56.964 162.578 56.796C162.906 56.62 163.25 56.532 163.61 56.532ZM163.202 62.244C164.242 62.244 164.762 61.44 164.762 59.832C164.762 58.216 164.286 57.408 163.334 57.408C163.022 57.408 162.738 57.5 162.482 57.684C162.226 57.868 162.002 58.104 161.81 58.392V61.476C161.97 61.724 162.17 61.916 162.41 62.052C162.65 62.18 162.914 62.244 163.202 62.244ZM171.974 61.524C171.974 61.78 172.018 61.972 172.106 62.1C172.194 62.22 172.326 62.312 172.502 62.376L172.25 63.144C171.922 63.104 171.658 63.012 171.458 62.868C171.258 62.724 171.11 62.5 171.014 62.196C170.59 62.828 169.962 63.144 169.13 63.144C168.506 63.144 168.014 62.968 167.654 62.616C167.294 62.264 167.114 61.804 167.114 61.236C167.114 60.564 167.354 60.048 167.834 59.688C168.322 59.328 169.01 59.148 169.898 59.148H170.87V58.68C170.87 58.232 170.762 57.912 170.546 57.72C170.33 57.528 169.998 57.432 169.55 57.432C169.086 57.432 168.518 57.544 167.846 57.768L167.57 56.964C168.354 56.676 169.082 56.532 169.754 56.532C170.498 56.532 171.054 56.716 171.422 57.084C171.79 57.444 171.974 57.96 171.974 58.632V61.524ZM169.382 62.316C170.014 62.316 170.51 61.988 170.87 61.332V59.88H170.042C168.874 59.88 168.29 60.312 168.29 61.176C168.29 61.552 168.382 61.836 168.566 62.028C168.75 62.22 169.022 62.316 169.382 62.316ZM176.546 56.532C176.922 56.532 177.266 56.588 177.578 56.7C177.89 56.804 178.19 56.976 178.478 57.216L177.95 57.912C177.726 57.752 177.506 57.636 177.29 57.564C177.082 57.484 176.85 57.444 176.594 57.444C176.082 57.444 175.682 57.648 175.394 58.056C175.114 58.464 174.974 59.068 174.974 59.868C174.974 60.668 175.114 61.26 175.394 61.644C175.674 62.02 176.074 62.208 176.594 62.208C176.842 62.208 177.07 62.172 177.278 62.1C177.486 62.02 177.718 61.896 177.974 61.728L178.478 62.448C177.902 62.912 177.258 63.144 176.546 63.144C175.69 63.144 175.014 62.856 174.518 62.28C174.03 61.704 173.786 60.908 173.786 59.892C173.786 59.22 173.898 58.632 174.122 58.128C174.346 57.624 174.662 57.232 175.07 56.952C175.486 56.672 175.978 56.532 176.546 56.532ZM181.076 54V63H179.972V54.132L181.076 54ZM184.712 56.676L182.384 59.472L184.976 63H183.656L181.148 59.544L183.476 56.676H184.712ZM190.197 61.524C190.197 61.78 190.241 61.972 190.329 62.1C190.417 62.22 190.549 62.312 190.725 62.376L190.473 63.144C190.145 63.104 189.881 63.012 189.681 62.868C189.481 62.724 189.333 62.5 189.237 62.196C188.813 62.828 188.185 63.144 187.353 63.144C186.729 63.144 186.237 62.968 185.877 62.616C185.517 62.264 185.337 61.804 185.337 61.236C185.337 60.564 185.577 60.048 186.057 59.688C186.545 59.328 187.233 59.148 188.121 59.148H189.093V58.68C189.093 58.232 188.985 57.912 188.769 57.72C188.553 57.528 188.221 57.432 187.773 57.432C187.309 57.432 186.741 57.544 186.069 57.768L185.793 56.964C186.577 56.676 187.305 56.532 187.977 56.532C188.721 56.532 189.277 56.716 189.645 57.084C190.013 57.444 190.197 57.96 190.197 58.632V61.524ZM187.605 62.316C188.237 62.316 188.733 61.988 189.093 61.332V59.88H188.265C187.097 59.88 186.513 60.312 186.513 61.176C186.513 61.552 186.605 61.836 186.789 62.028C186.973 62.22 187.245 62.316 187.605 62.316ZM197.447 56.964C197.207 57.044 196.943 57.096 196.655 57.12C196.367 57.144 196.015 57.156 195.599 57.156C196.343 57.492 196.715 58.024 196.715 58.752C196.715 59.384 196.499 59.9 196.067 60.3C195.635 60.7 195.047 60.9 194.303 60.9C194.015 60.9 193.747 60.86 193.499 60.78C193.403 60.844 193.327 60.932 193.271 61.044C193.215 61.148 193.187 61.256 193.187 61.368C193.187 61.712 193.463 61.884 194.015 61.884H195.023C195.447 61.884 195.823 61.96 196.151 62.112C196.479 62.264 196.731 62.472 196.907 62.736C197.091 63 197.183 63.3 197.183 63.636C197.183 64.252 196.931 64.724 196.427 65.052C195.923 65.388 195.187 65.556 194.219 65.556C193.539 65.556 192.999 65.484 192.599 65.34C192.207 65.204 191.927 64.996 191.759 64.716C191.591 64.436 191.507 64.076 191.507 63.636H192.503C192.503 63.892 192.551 64.092 192.647 64.236C192.743 64.388 192.915 64.5 193.163 64.572C193.411 64.652 193.763 64.692 194.219 64.692C194.883 64.692 195.355 64.608 195.635 64.44C195.923 64.28 196.067 64.036 196.067 63.708C196.067 63.412 195.955 63.188 195.731 63.036C195.507 62.884 195.195 62.808 194.795 62.808H193.799C193.263 62.808 192.855 62.696 192.575 62.472C192.303 62.24 192.167 61.952 192.167 61.608C192.167 61.4 192.227 61.2 192.347 61.008C192.467 60.816 192.639 60.644 192.863 60.492C192.495 60.3 192.223 60.064 192.047 59.784C191.879 59.496 191.795 59.148 191.795 58.74C191.795 58.316 191.899 57.936 192.107 57.6C192.323 57.264 192.615 57.004 192.983 56.82C193.359 56.628 193.775 56.532 194.231 56.532C194.727 56.54 195.143 56.524 195.479 56.484C195.815 56.436 196.091 56.376 196.307 56.304C196.531 56.224 196.803 56.112 197.123 55.968L197.447 56.964ZM194.231 57.324C193.815 57.324 193.491 57.456 193.259 57.72C193.035 57.976 192.923 58.316 192.923 58.74C192.923 59.172 193.039 59.52 193.271 59.784C193.503 60.04 193.831 60.168 194.255 60.168C194.687 60.168 195.015 60.044 195.239 59.796C195.471 59.54 195.587 59.184 195.587 58.728C195.587 57.792 195.135 57.324 194.231 57.324ZM203.17 59.652C203.17 59.836 203.162 60.024 203.146 60.216H199.114C199.162 60.912 199.338 61.424 199.642 61.752C199.946 62.08 200.338 62.244 200.818 62.244C201.122 62.244 201.402 62.2 201.658 62.112C201.914 62.024 202.182 61.884 202.462 61.692L202.942 62.352C202.27 62.88 201.534 63.144 200.734 63.144C199.854 63.144 199.166 62.856 198.67 62.28C198.182 61.704 197.938 60.912 197.938 59.904C197.938 59.248 198.042 58.668 198.25 58.164C198.466 57.652 198.77 57.252 199.162 56.964C199.562 56.676 200.03 56.532 200.566 56.532C201.406 56.532 202.05 56.808 202.498 57.36C202.946 57.912 203.17 58.676 203.17 59.652ZM202.078 59.328C202.078 58.704 201.954 58.228 201.706 57.9C201.458 57.572 201.086 57.408 200.59 57.408C199.686 57.408 199.194 58.072 199.114 59.4H202.078V59.328Z" fill="white"/>
<path d="M133.33 38.69C133.33 38.89 133.3 39.41 133.24 40.25H123.28C123.4 41.79 123.8 42.89 124.48 43.55C125.16 44.21 126.06 44.54 127.18 44.54C127.88 44.54 128.54 44.43 129.16 44.21C129.78 43.97 130.44 43.61 131.14 43.13L132.73 45.32C130.97 46.74 129.01 47.45 126.85 47.45C124.43 47.45 122.56 46.71 121.24 45.23C119.94 43.75 119.29 41.73 119.29 39.17C119.29 37.55 119.57 36.1 120.13 34.82C120.69 33.52 121.5 32.51 122.56 31.79C123.62 31.05 124.88 30.68 126.34 30.68C128.56 30.68 130.28 31.39 131.5 32.81C132.72 34.21 133.33 36.17 133.33 38.69ZM129.52 37.58C129.52 34.8 128.49 33.41 126.43 33.41C125.49 33.41 124.75 33.76 124.21 34.46C123.69 35.14 123.38 36.24 123.28 37.76H129.52V37.58ZM153.249 31.13L148.089 47H143.499L138.249 31.13H142.419L145.809 43.91L149.289 31.13H153.249ZM172.36 38.69C172.36 38.89 172.33 39.41 172.27 40.25H162.31C162.43 41.79 162.83 42.89 163.51 43.55C164.19 44.21 165.09 44.54 166.21 44.54C166.91 44.54 167.57 44.43 168.19 44.21C168.81 43.97 169.47 43.61 170.17 43.13L171.76 45.32C170 46.74 168.04 47.45 165.88 47.45C163.46 47.45 161.59 46.71 160.27 45.23C158.97 43.75 158.32 41.73 158.32 39.17C158.32 37.55 158.6 36.1 159.16 34.82C159.72 33.52 160.53 32.51 161.59 31.79C162.65 31.05 163.91 30.68 165.37 30.68C167.59 30.68 169.31 31.39 170.53 32.81C171.75 34.21 172.36 36.17 172.36 38.69ZM168.55 37.58C168.55 34.8 167.52 33.41 165.46 33.41C164.52 33.41 163.78 33.76 163.24 34.46C162.72 35.14 162.41 36.24 162.31 37.76H168.55V37.58ZM188.165 30.68C189.585 30.68 190.685 31.11 191.465 31.97C192.265 32.81 192.665 33.99 192.665 35.51V47H188.825V36.11C188.825 35.17 188.655 34.51 188.315 34.13C187.995 33.75 187.515 33.56 186.875 33.56C186.215 33.56 185.615 33.77 185.075 34.19C184.555 34.59 184.045 35.18 183.545 35.96V47H179.705V31.13H183.035L183.335 33.2C184.635 31.52 186.245 30.68 188.165 30.68ZM210.127 46.25C209.567 46.65 208.937 46.95 208.237 47.15C207.557 47.35 206.857 47.45 206.137 47.45C204.577 47.43 203.387 46.99 202.567 46.13C201.767 45.25 201.367 43.96 201.367 42.26V33.89H198.877V31.13H201.367V27.62L205.207 27.17V31.13H208.897L208.507 33.89H205.207V42.17C205.207 42.95 205.337 43.51 205.597 43.85C205.877 44.19 206.307 44.36 206.887 44.36C207.467 44.36 208.097 44.17 208.777 43.79L210.127 46.25ZM221.197 30.68C223.337 30.68 225.217 31.31 226.837 32.57L225.337 34.82C223.977 33.96 222.647 33.53 221.347 33.53C220.587 33.53 219.997 33.68 219.577 33.98C219.157 34.26 218.947 34.64 218.947 35.12C218.947 35.48 219.037 35.78 219.217 36.02C219.397 36.26 219.717 36.49 220.177 36.71C220.657 36.91 221.357 37.14 222.277 37.4C223.997 37.86 225.267 38.47 226.087 39.23C226.927 39.99 227.347 41.05 227.347 42.41C227.347 43.99 226.707 45.23 225.427 46.13C224.147 47.01 222.557 47.45 220.657 47.45C219.357 47.45 218.167 47.25 217.087 46.85C216.027 46.45 215.107 45.9 214.327 45.2L216.247 43.04C217.627 44.08 219.067 44.6 220.567 44.6C221.427 44.6 222.107 44.43 222.607 44.09C223.127 43.75 223.387 43.28 223.387 42.68C223.387 42.22 223.287 41.86 223.087 41.6C222.907 41.32 222.567 41.08 222.067 40.88C221.587 40.66 220.827 40.4 219.787 40.1C218.167 39.66 216.977 39.05 216.217 38.27C215.457 37.47 215.077 36.48 215.077 35.3C215.077 34.42 215.327 33.63 215.827 32.93C216.347 32.23 217.067 31.68 217.987 31.28C218.927 30.88 219.997 30.68 221.197 30.68ZM243.445 46.25C242.885 46.65 242.255 46.95 241.555 47.15C240.875 47.35 240.175 47.45 239.455 47.45C237.895 47.43 236.705 46.99 235.885 46.13C235.085 45.25 234.685 43.96 234.685 42.26V33.89H232.195V31.13H234.685V27.62L238.525 27.17V31.13H242.215L241.825 33.89H238.525V42.17C238.525 42.95 238.655 43.51 238.915 43.85C239.195 44.19 239.625 44.36 240.205 44.36C240.785 44.36 241.415 44.17 242.095 43.79L243.445 46.25ZM262.195 47H258.865L258.655 44.78C258.075 45.68 257.385 46.35 256.585 46.79C255.805 47.23 254.875 47.45 253.795 47.45C252.375 47.45 251.275 47.02 250.495 46.16C249.735 45.28 249.355 44.07 249.355 42.53V31.13H253.195V42.05C253.195 42.95 253.345 43.59 253.645 43.97C253.965 44.35 254.465 44.54 255.145 44.54C256.365 44.54 257.435 43.79 258.355 42.29V31.13H262.195V47ZM284.069 24.77V47H280.679L280.409 44.99C279.909 45.75 279.269 46.35 278.489 46.79C277.729 47.23 276.859 47.45 275.879 47.45C273.939 47.45 272.449 46.7 271.409 45.2C270.369 43.7 269.849 41.66 269.849 39.08C269.849 37.46 270.109 36.02 270.629 34.76C271.149 33.48 271.889 32.48 272.849 31.76C273.829 31.04 274.959 30.68 276.239 30.68C277.759 30.68 279.089 31.25 280.229 32.39V24.35L284.069 24.77ZM276.959 44.54C277.639 44.54 278.239 44.38 278.759 44.06C279.279 43.72 279.769 43.2 280.229 42.5V35.24C279.769 34.68 279.299 34.26 278.819 33.98C278.359 33.7 277.819 33.56 277.199 33.56C276.179 33.56 275.369 34.02 274.769 34.94C274.189 35.84 273.899 37.21 273.899 39.05C273.899 41.01 274.159 42.42 274.679 43.28C275.199 44.12 275.959 44.54 276.959 44.54ZM300.258 47.06C299.618 49.02 298.648 50.54 297.348 51.62C296.048 52.72 294.268 53.36 292.008 53.54L291.618 50.75C292.658 50.59 293.488 50.36 294.108 50.06C294.748 49.78 295.258 49.4 295.638 48.92C296.018 48.44 296.368 47.8 296.688 47H295.368L290.328 31.13H294.408L297.858 44.45L301.458 31.13H305.418L300.258 47.06Z" fill="white"/>
<rect x="67" y="31" width="2" height="35" fill="white"/>
<rect x="53" y="45.4735" width="4.34206" height="2.8947" rx="1.44735" fill="white"/>
<rect x="79" y="45.4735" width="4.34206" height="2.8947" rx="1.44735" fill="white"/>
<rect x="93" y="45.4735" width="4.34206" height="2.8947" rx="1.44735" fill="white"/>
<rect x="39" y="45.4735" width="4.34206" height="2.8947" rx="1.44735" fill="white"/>
</svg>
