<svg width="444" height="94" viewBox="0 0 444 94" fill="none" xmlns="http://www.w3.org/2000/svg">
<rect width="444" height="94" fill="#1EA0FF"/>
<path d="M171.044 60.532C171.852 60.532 172.444 60.82 172.82 61.396C173.196 61.972 173.384 62.784 173.384 63.832C173.384 64.824 173.168 65.624 172.736 66.232C172.304 66.84 171.692 67.144 170.9 67.144C170.196 67.144 169.644 66.904 169.244 66.424V69.424L168.14 69.556V60.676H169.088L169.172 61.528C169.404 61.208 169.684 60.964 170.012 60.796C170.34 60.62 170.684 60.532 171.044 60.532ZM170.636 66.244C171.676 66.244 172.196 65.44 172.196 63.832C172.196 62.216 171.72 61.408 170.768 61.408C170.456 61.408 170.172 61.5 169.916 61.684C169.66 61.868 169.436 62.104 169.244 62.392V65.476C169.404 65.724 169.604 65.916 169.844 66.052C170.084 66.18 170.348 66.244 170.636 66.244ZM177.75 67.036C177.502 67.772 177.154 68.352 176.706 68.776C176.266 69.208 175.634 69.468 174.81 69.556L174.69 68.692C175.106 68.62 175.438 68.516 175.686 68.38C175.934 68.244 176.13 68.068 176.274 67.852C176.426 67.644 176.566 67.36 176.694 67H176.322L174.198 60.676H175.374L177.066 66.196L178.722 60.676H179.862L177.75 67.036ZM184.316 66.712C183.9 67 183.428 67.144 182.9 67.144C182.364 67.144 181.944 66.992 181.64 66.688C181.344 66.376 181.196 65.928 181.196 65.344V61.528H180.092V60.676H181.196V59.248L182.3 59.116V60.676H183.8L183.68 61.528H182.3V65.296C182.3 65.624 182.356 65.864 182.468 66.016C182.588 66.16 182.784 66.232 183.056 66.232C183.304 66.232 183.584 66.148 183.896 65.98L184.316 66.712ZM188.436 60.532C189.012 60.532 189.46 60.704 189.78 61.048C190.108 61.392 190.272 61.864 190.272 62.464V67H189.168V62.62C189.168 62.172 189.08 61.856 188.904 61.672C188.736 61.488 188.488 61.396 188.16 61.396C187.832 61.396 187.54 61.492 187.284 61.684C187.028 61.876 186.788 62.148 186.564 62.5V67H185.46V58.144L186.564 58.024V61.552C187.06 60.872 187.684 60.532 188.436 60.532ZM194.868 60.532C195.756 60.532 196.444 60.828 196.932 61.42C197.428 62.012 197.676 62.816 197.676 63.832C197.676 64.488 197.564 65.068 197.34 65.572C197.116 66.068 196.792 66.456 196.368 66.736C195.944 67.008 195.44 67.144 194.856 67.144C193.968 67.144 193.276 66.848 192.78 66.256C192.284 65.664 192.036 64.86 192.036 63.844C192.036 63.188 192.148 62.612 192.372 62.116C192.596 61.612 192.92 61.224 193.344 60.952C193.768 60.672 194.276 60.532 194.868 60.532ZM194.868 61.42C193.772 61.42 193.224 62.228 193.224 63.844C193.224 65.452 193.768 66.256 194.856 66.256C195.944 66.256 196.488 65.448 196.488 63.832C196.488 62.224 195.948 61.42 194.868 61.42ZM202.475 60.532C203.051 60.532 203.499 60.704 203.819 61.048C204.147 61.392 204.311 61.864 204.311 62.464V67H203.207V62.62C203.207 62.172 203.123 61.856 202.955 61.672C202.787 61.488 202.539 61.396 202.211 61.396C201.875 61.396 201.579 61.492 201.323 61.684C201.067 61.876 200.827 62.152 200.603 62.512V67H199.499V60.676H200.447L200.543 61.612C200.767 61.276 201.043 61.012 201.371 60.82C201.707 60.628 202.075 60.532 202.475 60.532ZM212.61 60.532C213.418 60.532 214.01 60.82 214.386 61.396C214.762 61.972 214.95 62.784 214.95 63.832C214.95 64.824 214.734 65.624 214.302 66.232C213.87 66.84 213.258 67.144 212.466 67.144C211.762 67.144 211.21 66.904 210.81 66.424V69.424L209.706 69.556V60.676H210.654L210.738 61.528C210.97 61.208 211.25 60.964 211.578 60.796C211.906 60.62 212.25 60.532 212.61 60.532ZM212.202 66.244C213.242 66.244 213.762 65.44 213.762 63.832C213.762 62.216 213.286 61.408 212.334 61.408C212.022 61.408 211.738 61.5 211.482 61.684C211.226 61.868 211.002 62.104 210.81 62.392V65.476C210.97 65.724 211.17 65.916 211.41 66.052C211.65 66.18 211.914 66.244 212.202 66.244ZM220.974 65.524C220.974 65.78 221.018 65.972 221.106 66.1C221.194 66.22 221.326 66.312 221.502 66.376L221.25 67.144C220.922 67.104 220.658 67.012 220.458 66.868C220.258 66.724 220.11 66.5 220.014 66.196C219.59 66.828 218.962 67.144 218.13 67.144C217.506 67.144 217.014 66.968 216.654 66.616C216.294 66.264 216.114 65.804 216.114 65.236C216.114 64.564 216.354 64.048 216.834 63.688C217.322 63.328 218.01 63.148 218.898 63.148H219.87V62.68C219.87 62.232 219.762 61.912 219.546 61.72C219.33 61.528 218.998 61.432 218.55 61.432C218.086 61.432 217.518 61.544 216.846 61.768L216.57 60.964C217.354 60.676 218.082 60.532 218.754 60.532C219.498 60.532 220.054 60.716 220.422 61.084C220.79 61.444 220.974 61.96 220.974 62.632V65.524ZM218.382 66.316C219.014 66.316 219.51 65.988 219.87 65.332V63.88H219.042C217.874 63.88 217.29 64.312 217.29 65.176C217.29 65.552 217.382 65.836 217.566 66.028C217.75 66.22 218.022 66.316 218.382 66.316ZM225.546 60.532C225.922 60.532 226.266 60.588 226.578 60.7C226.89 60.804 227.19 60.976 227.478 61.216L226.95 61.912C226.726 61.752 226.506 61.636 226.29 61.564C226.082 61.484 225.85 61.444 225.594 61.444C225.082 61.444 224.682 61.648 224.394 62.056C224.114 62.464 223.974 63.068 223.974 63.868C223.974 64.668 224.114 65.26 224.394 65.644C224.674 66.02 225.074 66.208 225.594 66.208C225.842 66.208 226.07 66.172 226.278 66.1C226.486 66.02 226.718 65.896 226.974 65.728L227.478 66.448C226.902 66.912 226.258 67.144 225.546 67.144C224.69 67.144 224.014 66.856 223.518 66.28C223.03 65.704 222.786 64.908 222.786 63.892C222.786 63.22 222.898 62.632 223.122 62.128C223.346 61.624 223.662 61.232 224.07 60.952C224.486 60.672 224.978 60.532 225.546 60.532ZM230.076 58V67H228.972V58.132L230.076 58ZM233.712 60.676L231.384 63.472L233.976 67H232.656L230.148 63.544L232.476 60.676H233.712ZM239.197 65.524C239.197 65.78 239.241 65.972 239.329 66.1C239.417 66.22 239.549 66.312 239.725 66.376L239.473 67.144C239.145 67.104 238.881 67.012 238.681 66.868C238.481 66.724 238.333 66.5 238.237 66.196C237.813 66.828 237.185 67.144 236.353 67.144C235.729 67.144 235.237 66.968 234.877 66.616C234.517 66.264 234.337 65.804 234.337 65.236C234.337 64.564 234.577 64.048 235.057 63.688C235.545 63.328 236.233 63.148 237.121 63.148H238.093V62.68C238.093 62.232 237.985 61.912 237.769 61.72C237.553 61.528 237.221 61.432 236.773 61.432C236.309 61.432 235.741 61.544 235.069 61.768L234.793 60.964C235.577 60.676 236.305 60.532 236.977 60.532C237.721 60.532 238.277 60.716 238.645 61.084C239.013 61.444 239.197 61.96 239.197 62.632V65.524ZM236.605 66.316C237.237 66.316 237.733 65.988 238.093 65.332V63.88H237.265C236.097 63.88 235.513 64.312 235.513 65.176C235.513 65.552 235.605 65.836 235.789 66.028C235.973 66.22 236.245 66.316 236.605 66.316ZM246.447 60.964C246.207 61.044 245.943 61.096 245.655 61.12C245.367 61.144 245.015 61.156 244.599 61.156C245.343 61.492 245.715 62.024 245.715 62.752C245.715 63.384 245.499 63.9 245.067 64.3C244.635 64.7 244.047 64.9 243.303 64.9C243.015 64.9 242.747 64.86 242.499 64.78C242.403 64.844 242.327 64.932 242.271 65.044C242.215 65.148 242.187 65.256 242.187 65.368C242.187 65.712 242.463 65.884 243.015 65.884H244.023C244.447 65.884 244.823 65.96 245.151 66.112C245.479 66.264 245.731 66.472 245.907 66.736C246.091 67 246.183 67.3 246.183 67.636C246.183 68.252 245.931 68.724 245.427 69.052C244.923 69.388 244.187 69.556 243.219 69.556C242.539 69.556 241.999 69.484 241.599 69.34C241.207 69.204 240.927 68.996 240.759 68.716C240.591 68.436 240.507 68.076 240.507 67.636H241.503C241.503 67.892 241.551 68.092 241.647 68.236C241.743 68.388 241.915 68.5 242.163 68.572C242.411 68.652 242.763 68.692 243.219 68.692C243.883 68.692 244.355 68.608 244.635 68.44C244.923 68.28 245.067 68.036 245.067 67.708C245.067 67.412 244.955 67.188 244.731 67.036C244.507 66.884 244.195 66.808 243.795 66.808H242.799C242.263 66.808 241.855 66.696 241.575 66.472C241.303 66.24 241.167 65.952 241.167 65.608C241.167 65.4 241.227 65.2 241.347 65.008C241.467 64.816 241.639 64.644 241.863 64.492C241.495 64.3 241.223 64.064 241.047 63.784C240.879 63.496 240.795 63.148 240.795 62.74C240.795 62.316 240.899 61.936 241.107 61.6C241.323 61.264 241.615 61.004 241.983 60.82C242.359 60.628 242.775 60.532 243.231 60.532C243.727 60.54 244.143 60.524 244.479 60.484C244.815 60.436 245.091 60.376 245.307 60.304C245.531 60.224 245.803 60.112 246.123 59.968L246.447 60.964ZM243.231 61.324C242.815 61.324 242.491 61.456 242.259 61.72C242.035 61.976 241.923 62.316 241.923 62.74C241.923 63.172 242.039 63.52 242.271 63.784C242.503 64.04 242.831 64.168 243.255 64.168C243.687 64.168 244.015 64.044 244.239 63.796C244.471 63.54 244.587 63.184 244.587 62.728C244.587 61.792 244.135 61.324 243.231 61.324ZM252.17 63.652C252.17 63.836 252.162 64.024 252.146 64.216H248.114C248.162 64.912 248.338 65.424 248.642 65.752C248.946 66.08 249.338 66.244 249.818 66.244C250.122 66.244 250.402 66.2 250.658 66.112C250.914 66.024 251.182 65.884 251.462 65.692L251.942 66.352C251.27 66.88 250.534 67.144 249.734 67.144C248.854 67.144 248.166 66.856 247.67 66.28C247.182 65.704 246.938 64.912 246.938 63.904C246.938 63.248 247.042 62.668 247.25 62.164C247.466 61.652 247.77 61.252 248.162 60.964C248.562 60.676 249.03 60.532 249.566 60.532C250.406 60.532 251.05 60.808 251.498 61.36C251.946 61.912 252.17 62.676 252.17 63.652ZM251.078 63.328C251.078 62.704 250.954 62.228 250.706 61.9C250.458 61.572 250.086 61.408 249.59 61.408C248.686 61.408 248.194 62.072 248.114 63.4H251.078V63.328Z" fill="white"/>
<path d="M182.33 42.69C182.33 42.89 182.3 43.41 182.24 44.25H172.28C172.4 45.79 172.8 46.89 173.48 47.55C174.16 48.21 175.06 48.54 176.18 48.54C176.88 48.54 177.54 48.43 178.16 48.21C178.78 47.97 179.44 47.61 180.14 47.13L181.73 49.32C179.97 50.74 178.01 51.45 175.85 51.45C173.43 51.45 171.56 50.71 170.24 49.23C168.94 47.75 168.29 45.73 168.29 43.17C168.29 41.55 168.57 40.1 169.13 38.82C169.69 37.52 170.5 36.51 171.56 35.79C172.62 35.05 173.88 34.68 175.34 34.68C177.56 34.68 179.28 35.39 180.5 36.81C181.72 38.21 182.33 40.17 182.33 42.69ZM178.52 41.58C178.52 38.8 177.49 37.41 175.43 37.41C174.49 37.41 173.75 37.76 173.21 38.46C172.69 39.14 172.38 40.24 172.28 41.76H178.52V41.58ZM202.249 35.13L197.089 51H192.499L187.249 35.13H191.419L194.809 47.91L198.289 35.13H202.249ZM221.36 42.69C221.36 42.89 221.33 43.41 221.27 44.25H211.31C211.43 45.79 211.83 46.89 212.51 47.55C213.19 48.21 214.09 48.54 215.21 48.54C215.91 48.54 216.57 48.43 217.19 48.21C217.81 47.97 218.47 47.61 219.17 47.13L220.76 49.32C219 50.74 217.04 51.45 214.88 51.45C212.46 51.45 210.59 50.71 209.27 49.23C207.97 47.75 207.32 45.73 207.32 43.17C207.32 41.55 207.6 40.1 208.16 38.82C208.72 37.52 209.53 36.51 210.59 35.79C211.65 35.05 212.91 34.68 214.37 34.68C216.59 34.68 218.31 35.39 219.53 36.81C220.75 38.21 221.36 40.17 221.36 42.69ZM217.55 41.58C217.55 38.8 216.52 37.41 214.46 37.41C213.52 37.41 212.78 37.76 212.24 38.46C211.72 39.14 211.41 40.24 211.31 41.76H217.55V41.58ZM237.165 34.68C238.585 34.68 239.685 35.11 240.465 35.97C241.265 36.81 241.665 37.99 241.665 39.51V51H237.825V40.11C237.825 39.17 237.655 38.51 237.315 38.13C236.995 37.75 236.515 37.56 235.875 37.56C235.215 37.56 234.615 37.77 234.075 38.19C233.555 38.59 233.045 39.18 232.545 39.96V51H228.705V35.13H232.035L232.335 37.2C233.635 35.52 235.245 34.68 237.165 34.68ZM259.127 50.25C258.567 50.65 257.937 50.95 257.237 51.15C256.557 51.35 255.857 51.45 255.137 51.45C253.577 51.43 252.387 50.99 251.567 50.13C250.767 49.25 250.367 47.96 250.367 46.26V37.89H247.877V35.13H250.367V31.62L254.207 31.17V35.13H257.897L257.507 37.89H254.207V46.17C254.207 46.95 254.337 47.51 254.597 47.85C254.877 48.19 255.307 48.36 255.887 48.36C256.467 48.36 257.097 48.17 257.777 47.79L259.127 50.25ZM270.197 34.68C272.337 34.68 274.217 35.31 275.837 36.57L274.337 38.82C272.977 37.96 271.647 37.53 270.347 37.53C269.587 37.53 268.997 37.68 268.577 37.98C268.157 38.26 267.947 38.64 267.947 39.12C267.947 39.48 268.037 39.78 268.217 40.02C268.397 40.26 268.717 40.49 269.177 40.71C269.657 40.91 270.357 41.14 271.277 41.4C272.997 41.86 274.267 42.47 275.087 43.23C275.927 43.99 276.347 45.05 276.347 46.41C276.347 47.99 275.707 49.23 274.427 50.13C273.147 51.01 271.557 51.45 269.657 51.45C268.357 51.45 267.167 51.25 266.087 50.85C265.027 50.45 264.107 49.9 263.327 49.2L265.247 47.04C266.627 48.08 268.067 48.6 269.567 48.6C270.427 48.6 271.107 48.43 271.607 48.09C272.127 47.75 272.387 47.28 272.387 46.68C272.387 46.22 272.287 45.86 272.087 45.6C271.907 45.32 271.567 45.08 271.067 44.88C270.587 44.66 269.827 44.4 268.787 44.1C267.167 43.66 265.977 43.05 265.217 42.27C264.457 41.47 264.077 40.48 264.077 39.3C264.077 38.42 264.327 37.63 264.827 36.93C265.347 36.23 266.067 35.68 266.987 35.28C267.927 34.88 268.997 34.68 270.197 34.68ZM292.445 50.25C291.885 50.65 291.255 50.95 290.555 51.15C289.875 51.35 289.175 51.45 288.455 51.45C286.895 51.43 285.705 50.99 284.885 50.13C284.085 49.25 283.685 47.96 283.685 46.26V37.89H281.195V35.13H283.685V31.62L287.525 31.17V35.13H291.215L290.825 37.89H287.525V46.17C287.525 46.95 287.655 47.51 287.915 47.85C288.195 48.19 288.625 48.36 289.205 48.36C289.785 48.36 290.415 48.17 291.095 47.79L292.445 50.25ZM311.195 51H307.865L307.655 48.78C307.075 49.68 306.385 50.35 305.585 50.79C304.805 51.23 303.875 51.45 302.795 51.45C301.375 51.45 300.275 51.02 299.495 50.16C298.735 49.28 298.355 48.07 298.355 46.53V35.13H302.195V46.05C302.195 46.95 302.345 47.59 302.645 47.97C302.965 48.35 303.465 48.54 304.145 48.54C305.365 48.54 306.435 47.79 307.355 46.29V35.13H311.195V51ZM333.069 28.77V51H329.679L329.409 48.99C328.909 49.75 328.269 50.35 327.489 50.79C326.729 51.23 325.859 51.45 324.879 51.45C322.939 51.45 321.449 50.7 320.409 49.2C319.369 47.7 318.849 45.66 318.849 43.08C318.849 41.46 319.109 40.02 319.629 38.76C320.149 37.48 320.889 36.48 321.849 35.76C322.829 35.04 323.959 34.68 325.239 34.68C326.759 34.68 328.089 35.25 329.229 36.39V28.35L333.069 28.77ZM325.959 48.54C326.639 48.54 327.239 48.38 327.759 48.06C328.279 47.72 328.769 47.2 329.229 46.5V39.24C328.769 38.68 328.299 38.26 327.819 37.98C327.359 37.7 326.819 37.56 326.199 37.56C325.179 37.56 324.369 38.02 323.769 38.94C323.189 39.84 322.899 41.21 322.899 43.05C322.899 45.01 323.159 46.42 323.679 47.28C324.199 48.12 324.959 48.54 325.959 48.54ZM349.258 51.06C348.618 53.02 347.648 54.54 346.348 55.62C345.048 56.72 343.268 57.36 341.008 57.54L340.618 54.75C341.658 54.59 342.488 54.36 343.108 54.06C343.748 53.78 344.258 53.4 344.638 52.92C345.018 52.44 345.368 51.8 345.688 51H344.368L339.328 35.13H343.408L346.858 48.45L350.458 35.13H354.418L349.258 51.06Z" fill="white"/>
<rect x="115" y="35" width="2" height="35" fill="white"/>
<rect x="102.685" y="49.4735" width="4.34206" height="2.8947" rx="1.44735" fill="white"/>
<rect x="127.255" y="49.4735" width="4.34206" height="2.8947" rx="1.44735" fill="white"/>
<rect x="141.658" y="49.4735" width="4.34206" height="2.8947" rx="1.44735" fill="white"/>
<rect x="88" y="49.4735" width="4.34206" height="2.8947" rx="1.44735" fill="white"/>
</svg>
